<svg xmlns="http://www.w3.org/2000/svg" version="1">
    <symbol id="delIcon" viewBox="0 0 512 512"><path d="M439 70s3 2-43-12c-42-13-81-16-81-16l-3-19c-2-13-13-23-25-23h-62c-12 0-23 10-25 23l-3 19s-39 3-81 16C70 72 73 70 73 70c-10 3-18 12-18 24v16h402V94c0-12-8-21-18-24zM89 465c2 26 24 47 51 47h232c27 0 49-21 51-47l26-327H63l26 327zm253-255a15 15 0 1 1 30 2l-14 239a15 15 0 0 1-30-2l14-239zm-101 1a15 15 0 1 1 30 0v239a15 15 0 1 1-30 0V211zm-87-15c8-1 15 6 16 14l14 239a15 15 0 0 1-30 2l-14-239c-1-9 5-16 14-16z"/></symbol>    
    <symbol id="addIcon" viewBox="0 0 640 640"><path d="M598 282H360V44a39 39 0 1 0-79 0v238H43a39 39 0 1 0 0 78h238v238a39 39 0 1 0 79 0V360h238a39 39 0 0 0 0-78z"/></symbol>
    <symbol id="listIcon" viewBox="0 0 640 640"><path d="M598 356H251a35 35 0 0 1 0-71h347a35 35 0 1 1 0 71zM598 151H251a35 35 0 0 1 0-70h347a35 35 0 1 1 0 70zM598 560H250a35 35 0 0 1 0-70h348a35 35 0 0 1 0 70z"/><circle cx="71" cy="117" r="65"/><circle cx="71" cy="319" r="65"/><circle cx="71" cy="523" r="65"/></symbol>
    <symbol id="historyIcon" viewBox="0 0 640 640"><path d="M608 273H369a28 28 0 1 1 0-57h239a28 28 0 1 1 0 57zM608 419H369a28 28 0 1 1 0-57h239a28 28 0 1 1 0 57z"/><path d="M534 490l-149-7 42 47c-86 45-175 35-259-30-53-44-86-116-87-188A231 231 0 0 1 365 86c56 13 94 40 95 41a37 37 0 0 0 44-61c-2-1-49-36-119-52-95-23-186-3-264 58l-1 1A309 309 0 0 0 7 313c0 93 44 187 114 245v1c64 48 131 73 199 73 53 0 107-15 157-45l46 51 11-148z"/><circle cx="259" cy="247" r="39"/><circle cx="259" cy="391" r="39"/></symbol>
    <symbol id="settingIcon" viewBox="0 0 640 640"><path d="M604 410l-56-33-3-2v-3c9-36 8-72 0-107l57-32c10-5 14-18 8-28l-42-76c-5-10-18-14-28-8l-57 31-2 2c-27-27-60-46-98-57h1l1-65c0-12-9-21-20-21l-87-2c-12-1-21 9-22 20l-1 65v4a232 232 0 0 0-96 56v-1l-56-33c-10-6-23-3-29 7l-45 74c-6 10-3 22 7 28l56 34 3 2v3c-9 37-8 74 1 108h-1l-57 32c-10 5-14 18-8 28l42 76c5 10 18 14 28 8l57-31 3-2c26 25 59 45 97 55v1l-2 65c0 12 9 21 20 21l87 2c12 0 21-9 22-20l1-65v-4c36-11 69-30 96-56l56 34c10 6 23 3 29-7l45-74c6-10 3-23-7-29zm-319 63a157 157 0 0 1 70-306 156 156 0 0 1 118 188 157 157 0 0 1-188 118z"/></symbol>
    <symbol id="seasonerIcon" viewBox="0 0 640 640"><path d="M460 159c6-5 11-12 11-21V71c0-37-30-67-67-67H236c-37 0-67 30-67 67v67c0 10 6 19 15 23l-58 407v1c0 37 30 67 67 67h254c37 0 67-30 67-67v-1l-54-409zm-13 451H193c-22 0-41-18-41-40l56-394h228l52 394c0 22-19 40-41 40z"/></symbol>
    <symbol id="allIcon" viewBox="0 0 640 640"><path d="M320 630A308 308 0 0 1 10 320 308 308 0 0 1 320 10a308 308 0 0 1 310 310 308 308 0 0 1-310 310zm0-595a285 285 0 1 0 1 570 285 285 0 0 0-1-570z"/><path d="M168 222h39l77 201h-40l-15-41h-82l-17 41H91l77-201zm20 53l-27 70h54l-27-70zM314 222h38v165h56v36h-94V222zM437 222h38v165h56v36h-94V222z"/></symbol>
    <symbol id="freshIcon" viewBox="0 0 640 640"><path d="M-525 133c7-5 11-12 11-21V45c0-37-30-67-67-67h-168c-37 0-67 30-67 67v67c0 10 6 19 15 23l-58 407v1c0 37 30 67 67 67h254c37 0 67-30 67-67v-1l-54-409zm-13 451h-254c-22 0-40-18-41-40l56-394h228l52 394c0 22-19 40-41 40z"/><path d="M-1 263l21-29-16-14 27-31 19 15 30-24-7-13 37-20 8 14 46 84c1 2 2 4 5 3 15-3 30 1 43 10 13 8 25 17 36 27 32 32 62 65 87 102 23 32 41 66 50 104l5 27 7 23c1 3 0 7-1 10s-5 3-8 2c-12-7-26-8-39-10-40-8-76-25-109-47a624 624 0 0 1-129-116 77 77 0 0 1-19-50l-2-4-90-61h-1v-2zm128 5l1 1-1-1c-10-26-30-46-47-68l-7 6 30 39c7 9 14 17 24 23zm110 37c-11-13-32-28-45-33-12-5-24-5-34 4-13 11-26 24-37 37-8 9-9 20-5 31 4 14 12 25 22 35 25 28 53 53 82 76 31 24 63 45 100 57 16 6 32 9 49 12-8-64-41-114-80-162l-4 4-40 40c-5 5-12 5-16-1-2-4-2-9 3-13a5907 5907 0 0 1 45-45l-26-29-11 12-17 16c-3 4-8 4-12 2s-6-6-5-10l4-7 27-26zm-118-22l-84-70-6 8 83 68 7-6zM96 177l46 84 8-6-45-83-9 5zm7 123l-72-48-6 9 72 49 6-10z"/><path d="M639 335l-1 3c-4 18-14 33-26 46-18 20-42 29-68 35-52 12-104 13-156 0-7-2-12-5-16-12-15-27-33-52-53-75-2-3-3-6-3-10 0-12-1-25 2-36 6-30 26-48 54-58 16-6 34-8 51-10 15-2 30-6 44-14 44-25 103-19 141 14 16 15 27 33 30 55l1 1v61zm-180 36c40 0 72-5 99-14 21-7 38-19 51-38 6-10 10-21 10-34 0-21-9-38-25-52-32-28-81-32-119-11-11 7-23 12-37 14l-44 7c-18 3-33 10-45 24a49 49 0 0 0-3 62c10 15 23 26 40 31 26 8 53 11 73 11z"/><path d="M539 173c-30-1-58 4-83 19-14 8-29 10-45 12s-32 5-48 11c-15 6-28 14-38 26-4 4-7 4-11 4-25-1-49-6-73-15-30-12-57-28-82-50-9-8-9-16 0-24 41-36 88-58 142-65 41-5 80 5 117 23l43 25c3 2 5 2 8 1l58-29c6-3 13-1 12 8v54zm-338-18c0 6 5 11 11 11 5 0 11-5 11-11s-5-11-11-11-11 5-11 11z"/><path d="M530 226c24 1 47 9 63 30 13 18 12 42-2 59-17 22-40 31-67 35-20 4-33-5-43-22-12-22-17-45-15-70 1-9 5-16 13-20 15-8 32-12 51-12z"/><path d="M443 355c-23-2-46-7-66-18-14-8-23-20-24-37-1-8 3-16 9-22 15-17 34-23 56-21 8 1 14 6 19 11 16 20 26 43 26 69 0 14-4 17-18 18h-2z"/></symbol>
    <symbol id="preservedIcon" viewBox="0 0 640 640"><path d="M637 183l-9-17c-3-4-4-8-3-13l1-9c2-9 2-9-7-13-9-3-19-5-23-15-2-4-5-9-8-10-4-2-9 0-13 2-8 4-16 3-23-3-8-7-15-7-23 1-6 7-14 8-23 4s-16-3-21 6c-5 8-12 11-22 9l-10-1-5 3-11 17-5 2-19 3c-2 0-4 2-5 4l-7 16-5 5-17 5c-3 1-5 3-6 6l-3 18-4 5-15 8c-3 2-5 4-4 7l1 18-2 6-13 14c-2 3-2 5 0 7l9 18h1-4a589 589 0 0 0-231-10c-26 4-51 9-74 21-11 6-21 13-26 25v172c5 12 14 18 24 24 27 14 56 20 86 24a577 577 0 0 0 213-10c18-4 35-10 50-22 9-6 13-15 13-26V347c0-8 0-10 9-10l6 2 12 6c4 4 8 4 13 0 9-10 20-12 32-6 6 3 10 1 14-4 7-12 17-15 31-12 5 1 8 0 11-5l5-9c3-6 7-9 14-9 5 1 9 0 14-1l4-3 7-17c1-3 3-5 7-6l17-5 4-4 3-18c1-3 2-5 6-7l15-8c2-2 3-3 3-6l-1-19 2-6 15-17zM367 329c-4 12-47 23-67 27-33 8-67 10-101 10a464 464 0 0 1-159-26c-4-2-9-5-9-11s4-9 8-11a508 508 0 0 1 165-27c47 1 94 4 140 20 11 3 16 7 16 7s9 6 7 11z"/><path d="M342 286h1-1z"/></symbol>
    <symbol id="otherIcon" viewBox="0 0 640 640"><path d="M342 286h1-1z"/><path d="M201 321a40 40 0 1 1-40-40c22 0 40 18 40 40zM321 281a40 40 0 1 1-40 39c1-22 18-39 40-39zM483 360c-21 2-40-15-42-36a40 40 0 0 1 80-6c1 22-15 40-38 42z"/></symbol>
    <symbol id="calendarViewIcon" viewBox="0 0 24 24"><path d="M20 3h-1V1h-2v2H7V1H5v2H4L2 5v16l2 2h16l2-2V5l-2-2zm0 18H4V8h16v13z"/><path fill="none" d="M0 0h24v24H0z"/></symbol>
    <symbol id="listViewIcon"><path d="M3 13h2v-2H3v2zm0 4h2v-2H3v2zm0-8h2V7H3v2zm4 4h14v-2H7v2zm0 4h14v-2H7v2zM7 7v2h14V7H7z"/><path fill="none" d="M0 0h24v24H0z"/></symbol>
</svg>