<svg xmlns="http://www.w3.org/2000/svg" version="1">
    <symbol id="delIcon"><path d="M439 70s3 2-43-12c-42-13-81-16-81-16l-3-19c-2-13-13-23-25-23h-62c-12 0-23 10-25 23l-3 19s-39 3-81 16C70 72 73 70 73 70c-10 3-18 12-18 24v16h402V94c0-12-8-21-18-24zM89 465c2 26 24 47 51 47h232c27 0 49-21 51-47l26-327H63l26 327zm253-255a15 15 0 1 1 30 2l-14 239a15 15 0 0 1-30-2l14-239zm-101 1a15 15 0 1 1 30 0v239a15 15 0 1 1-30 0V211zm-87-15c8-1 15 6 16 14l14 239a15 15 0 0 1-30 2l-14-239c-1-9 5-16 14-16z"/></symbol>    
</svg>